<svg id="Layer_1" data-name="Layer 1" xmlns="http://www.w3.org/2000/svg" viewBox="0 0 500 500"><defs><style>.cls-1{fill:none;stroke:#231f00;stroke-linecap:round;stroke-linejoin:round;stroke-width:12px}</style></defs><path class="cls-1" d="M302.06 423.29a212.76 212.76 0 01-74.16 13.25c-117.69 0-213.1-95.41-213.1-213.1s95.41-213.1 213.1-213.1S441 105.75 441 223.44a212.51 212.51 0 01-16.19 81.62"/><path d="M292.33 145.63h-45.27c9.38 7.43 16.17 18.1 18.11 33h27.16a8.08 8.08 0 018.08 8.08 8.09 8.09 0 01-8.08 8.09h-26.84c-3.23 33-29.43 54-70.82 55.29 20.24 21 41.93 46.41 63.75 72.83a12 12 0 01-9.28 19.66 12.08 12.08 0 01-9.26-4.36c-22.8-27.44-44.6-53.27-71.71-82.34a14.5 14.5 0 01-3.89-9.84 14.37 14.37 0 0114.38-14.38h3.4c34.92 0 53.68-14.55 55.94-36.86h-65.64a8.09 8.09 0 01-8.09-8.09 8.09 8.09 0 018.09-8.08H237c-4.52-18.76-21.66-28.13-49.8-28.13h-12.42a10.52 10.52 0 01-10.51-10.5 10.51 10.51 0 0110.51-10.51h117.55a8.08 8.08 0 018.08 8.08 8.09 8.09 0 01-8.08 8.06z"/><path class="cls-1" d="M490.66 396.81A96.09 96.09 0 11415.91 303q4 .92 7.89 2.16a96.23 96.23 0 0166.86 91.65zM394.48 359.62v74.39M357.28 396.81h74.39"/></svg>