<svg id="Layer_1" data-name="Layer 1" xmlns="http://www.w3.org/2000/svg" viewBox="0 0 500 500"><defs><style>.cls-1{fill:none;stroke:#000;stroke-miterlimit:10;stroke-width:12px}</style></defs><path class="cls-1" d="M357.9 465.56H42.16a20.51 20.51 0 01-20.51-20.51V283.66a106.15 106.15 0 01106.14-106.15h17.41M254.14 177.51h14.35c27.17 0 76.15 5.28 101.1 67.93"/><path d="M198 17a85.37 85.37 0 11-85.37 85.36A85.46 85.46 0 01198 17m0-12a97.37 97.37 0 1097.36 97.36A97.36 97.36 0 00198 5z"/><g id="lock"><path id="Path_729" data-name="Path 729" d="M363.87 240.6a114.47 114.47 0 00-9.8 228.53l-18.65 18.63a4.24 4.24 0 006 6l25.43-25.43a4.39 4.39 0 00.92-1.38 4.27 4.27 0 00-.92-4.63l-25.43-25.43a4.24 4.24 0 00-6 6l17.66 17.66a106 106 0 1186.1-30.86 4.24 4.24 0 006 6 114.49 114.49 0 00-81.34-195z"/><circle cx="298.36" cy="353.25" r="14.56" id="Ellipse_78" data-name="Ellipse 78"/><circle cx="342.03" cy="353.25" r="14.56" id="Ellipse_79" data-name="Ellipse 79"/><circle cx="385.7" cy="353.25" r="14.56" id="Ellipse_80" data-name="Ellipse 80"/><circle cx="429.37" cy="353.25" r="14.56" id="Ellipse_81" data-name="Ellipse 81"/></g></svg>