<svg id="Layer_1" data-name="Layer 1" xmlns="http://www.w3.org/2000/svg" viewBox="0 0 500 500"><defs><style>.cls-1{fill:none;stroke:#000;stroke-miterlimit:10;stroke-width:12px}</style></defs><path class="cls-1" d="M357.9 465.56H42.16a20.51 20.51 0 01-20.51-20.51V283.66a106.15 106.15 0 01106.14-106.15h17.41M254.14 177.51h14.35c27.17 0 77.29 7.57 102.25 70.22"/><path d="M198 17a85.37 85.37 0 11-85.37 85.36A85.46 85.46 0 01198 17m0-12a97.37 97.37 0 1097.36 97.36A97.36 97.36 0 00198 5zM363.91 256.43c58.1 0 105.37 45.43 105.37 101.27S422 459 363.91 459s-105.37-45.47-105.37-101.3 47.27-101.27 105.37-101.27m0-12c-64.83 0-117.37 50.71-117.37 113.27S299.08 471 363.91 471s117.37-50.75 117.37-113.3-52.55-113.27-117.37-113.27z"/><g id="lock"><circle cx="298.4" cy="357.7" r="14.56" id="Ellipse_78" data-name="Ellipse 78"/><circle cx="342.07" cy="357.7" r="14.56" id="Ellipse_79" data-name="Ellipse 79"/><circle cx="385.74" cy="357.7" r="14.56" id="Ellipse_80" data-name="Ellipse 80"/><circle cx="429.41" cy="357.7" r="14.56" id="Ellipse_81" data-name="Ellipse 81"/></g></svg>