<svg id="Layer_1" data-name="Layer 1" xmlns="http://www.w3.org/2000/svg" viewBox="0 0 500 500"><defs><style>.cls-1{fill:none;stroke:#231f20;stroke-linecap:round;stroke-linejoin:round;stroke-width:12px}</style></defs><path class="cls-1" d="M202.71 51.45l-10.8-26.08A9 9 0 01200.19 13h113.87a9 9 0 018.34 12.26L303.54 73M300.94 204C465.29 296 401 487 257 487c-130.67 0-203.33-186.7-44.7-282.39"/><path d="M302.13 287h-26.51a28.39 28.39 0 0110.6 19.32h15.91a4.74 4.74 0 014.74 4.74 4.74 4.74 0 01-4.74 4.73h-15.72c-1.89 19.32-17.23 31.63-41.48 32.39 11.86 12.31 24.56 27.18 37.34 42.66a7 7 0 01-5.44 11.51 7.07 7.07 0 01-5.42-2.55c-13.35-16.07-26.12-31.2-42-48.23a8.5 8.5 0 01-2.28-5.76 8.42 8.42 0 018.42-8.42h2c20.46 0 31.45-8.53 32.77-21.6h-38.46a4.73 4.73 0 01-4.73-4.73 4.74 4.74 0 014.73-4.74h37.88c-2.65-11-12.69-16.48-29.16-16.48h-7.3a6.15 6.15 0 01-6.15-6.15 6.15 6.15 0 016.15-6.16h68.85a4.74 4.74 0 014.74 4.74 4.74 4.74 0 01-4.74 4.73z"/><path class="cls-1" d="M148.19 93.23v111.05h189.08V73.04h-82.45V51.33h-51.81l-44.1 41.9h-10.72z"/><rect class="cls-1" x="32.62" y="76.98" width="114.53" height="146.03" rx="12"/></svg>