<svg version="1.1" id="Layer_1" xmlns="http://www.w3.org/2000/svg" x="0" y="0" viewBox="0 0 500 500" xml:space="preserve"><style>.st28{stroke-linecap:round}.st28,.st29{fill:none;stroke:#231f20;stroke-width:12.1983;stroke-linejoin:round}</style><path id="Path_584" class="st28" d="M181.8 8.5h209.7c16.1-.1 29.2 12.9 29.3 29V462c-.1 16.1-13.2 29.1-29.3 29H113.9c-16.1.1-29.2-13-29.3-29.1V108.6"/><path id="Path_585" d="M169.7 30l.7 67-65.1-.7L169.7 30m10-27c-.5 0-1 .2-1.4.6L79.7 105.1c-.7.8-.7 2 .2 2.8.4.3.8.5 1.3.5l99.5 1c1.1 0 2-.9 2-2L181.7 5c0-1.1-.9-2-2-2z" fill="#231f20"/><path id="Line_96" class="st28" d="M178.3 438.3h149.1"/><g id="Group_762" transform="translate(18 -30)"><g id="Ellipse_41" transform="translate(69.574 46.279)"><circle cx="162.3" cy="206.3" r="73.2" fill="none"/><circle class="st28" cx="162.3" cy="206.3" r="67.1"/></g><g id="Group_762-2" transform="translate(.13)"><path id="Path_587" class="st29" d="M178.5 291.7l-36.2 41.6 29.3-2.5 6.9 29.3 23.1-48.1"/><path id="Path_588" class="st29" d="M279.3 291.7l36.2 41.6-29.3-2.5-6.9 29.3-23.1-48.1"/></g></g></svg>