<svg id="Layer_1" data-name="Layer 1" xmlns="http://www.w3.org/2000/svg" viewBox="0 0 500 500"><defs><style>.cls-2{fill:#231f20}</style></defs><g id="Group_803" data-name="Group 803"><g id="Icons-13"><path id="Path_584" data-name="Path 584" d="M181.8 9.5h209.7a29.17 29.17 0 0129.27 29V463a29.18 29.18 0 01-29.27 29l-33.59-23.55-29.83 23.48-36-23.48-35.57 23.48-30.9-23.48-38.84 23.48-39.57-23.48-33.3 23.48a29.17 29.17 0 01-29.27-29V109.59" fill="none" stroke="#231f20" stroke-linecap="round" stroke-linejoin="round" stroke-width="12.2"/><path id="Path_585" data-name="Path 585" class="cls-2" d="M169.67000000000002 31l.65 67-65.06-.65 64.44-66.28m10-27a2 2 0 00-1.42.61L79.72 106.09a2 2 0 00.16 2.76 2 2 0 001.28.5l99.53 1a2 2 0 002-2L181.67 6a2 2 0 00-2-1.95h-.05z"/></g><path class="cls-2" d="M304.28 195.06h-33.57a36.48 36.48 0 0113.43 24.8h20.15a6 6 0 016 6.07 6.06 6.06 0 01-6 6.09h-19.9c-2.39 24.8-21.83 40.66-52.51 41.59 15 15.81 31.12 34.9 47.3 54.77a9.15 9.15 0 011.17 9.6 8.89 8.89 0 01-8.13 5.17 8.9 8.9 0 01-6.88-3.25c-16.91-20.62-33.08-40.06-53.2-61.92a10.92 10.92 0 01-2.89-7.4 10.73 10.73 0 0110.65-10.82h2.54c25.9 0 39.83-10.94 41.5-27.64h-48.79a6 6 0 01-6-6.09 6 6 0 016-6.08h48c-3.35-14.1-16.07-21.14-36.94-21.14h-9.27a7.87 7.87 0 01-7.81-7.91 8 8 0 012.3-5.59 7.72 7.72 0 015.51-2.31h87.2a6 6 0 016 6.08 6 6 0 01-5.86 5.98z" id="Path_589" data-name="Path 589"/></g></svg>